#!OML:ASF I:\Actors\actors\Patient Classification 1\Patient 1\Session 1\Subject1.ASF
:FULLY-SPECIFIED
:DEGREES
204
root 0.311804 17.7126 7.77624 20.6156 -48.5995 -9.9712
lowerback 9.68982 -6.5025 -6.55458
upperback -7.5875 -9.82815 1.15884
thorax -12.4449 -4.069 6.79593
lowerneck -8.19478 13.4613 13.8335
upperneck 18.4849 16.077 0.445949
head 8.21172 8.56929 -0.333529
rclavicle -6.00827e-014 -4.29375e-014
rhumerus -86.5933 -35.6095 6.76335
rradius 30.5173
rwrist 11.8855
rhand 22.4842 -26.6405
rfingers 7.12502
rthumb 46.8419 -49.376
lclavicle -6.00827e-014 -4.29375e-014
lhumerus 111.411 57.6924 151.865
lradius 12.6632
lwrist -86.0118
lhand -19.5346 -22.1038
lfingers 7.12502
lthumb 6.7891 7.76732
rfemur -25.6339 29.5577 13.7518
rtibia 7.1174
rfoot -0.432337 13.9564
rtoes 1.19207
lfemur 6.37804 -20.3128 -23.3964
ltibia -9.96495
lfoot -63.4587 45.7958
ltoes 51.0842
205
root 0.297386 17.7093 7.7888 20.7373 -48.9678 -10.0583
lowerback 9.54162 -6.52698 -6.73054
upperback -7.77389 -9.90771 1.06492
thorax -12.5515 -4.08856 6.79706
lowerneck -8.12469 13.4663 13.8829
upperneck 18.506 16.0821 0.475059
head 8.20943 8.57823 -0.334009
rclavicle 1.61016e-014 -3.18055e-014
rhumerus -87.5929 -36.0884 11.5649
rradius 30.2199
rwrist 11.5993
rhand 22.2401 -26.9437
rfingers 7.12502
rthumb 46.6159 -49.7774
lclavicle 1.61016e-014 -3.18055e-014
lhumerus 110.934 59.1004 151.101
lradius 12.9655
lwrist -82.513
lhand -19.4629 -21.416
lfingers 7.12502
lthumb 6.85828 8.45288
rfemur -25.6428 29.5683 13.7884
rtibia 7.04333
rfoot -0.234557 14.2932
rtoes 1.65737
lfemur 6.16637 -4.77564 -21.7467
ltibia -11.7386
lfoot -47.0725 36.2544
ltoes 51.3781
206
root 0.282327 17.7063 7.80264 20.9106 -49.3019 -10.2288
lowerback 9.38861 -6.54176 -6.83724
upperback -7.95929 -9.95974 0.999793
thorax -12.6639 -4.09922 6.78732
lowerneck -8.05868 13.4917 13.9418
upperneck 18.5685 16.1178 0.482277
head 8.22667 8.60097 -0.336462
rclavicle -6.63941e-014 2.54444e-014
rhumerus -88.4172 -36.6119 16.1576
rradius 30.1055
rwrist 10.9802
rhand 21.9192 -27.3011
rfingers 7.12502
rthumb 46.3186 -50.2618
lclavicle -6.63941e-014 2.54444e-014
lhumerus 110.029 60.5937 149.927
lradius 13.2937
lwrist -78.7199
lhand -19.3761 -20.5787
lfingers 7.12502
lthumb 6.94211 9.28743
rfemur -25.591 29.5414 13.9241
rtibia 6.92449
rfoot -0.0156812 14.6463
rtoes 2.13893
lfemur 6.43517 10.6259 -20.0305
ltibia -12.6557
lfoot -34.4363 25.0423
ltoes 51.6978
207
root 0.266688 17.7034 7.81745 21.1339 -49.6252 -10.4608
lowerback 9.2116 -6.53558 -6.90053
upperback -8.14316 -9.97214 0.956657
thorax -12.7686 -4.09455 6.76833
lowerneck -7.9627 13.5259 14.0174
upperneck 18.6035 16.1776 0.443944
head 8.23625 8.63219 -0.355406
rclavicle -2.19657e-014 -4.29375e-014
rhumerus -89.0642 -37.1927 20.4466
rradius 30.2106
rwrist 9.89337
rhand 21.5833 -27.7137
rfingers 7.12502
rthumb 46.0071 -50.8053
lclavicle -2.19657e-014 -4.29375e-014
lhumerus 108.781 62.1026 148.462
lradius 13.6312
lwrist -74.851
lhand -19.3449 -19.6983
lfingers 7.12502
lthumb 6.97218 10.1669
rfemur -25.5168 29.4831 14.1255
rtibia 6.78575
rfoot 0.216393 15.0281
rtoes 2.64435
lfemur 7.21285 25.7033 -18.0292
ltibia -12.6364
lfoot -24.0262 13.2812
ltoes 52.0059
208
root 0.250343 17.7004 7.83268 21.4071 -49.9404 -10.7516
lowerback 9.00953 -6.50653 -6.92953
upperback -8.32557 -9.94382 0.932955
thorax -12.8641 -4.07356 6.74203
lowerneck -7.88837 13.559 14.073
upperneck 18.6563 16.2349 0.412483
head 8.25307 8.66171 -0.367746
rclavicle -7.524e-014 -9.38264e-014
rhumerus -89.5233 -37.8413 24.3668
rradius 30.5451
rwrist 8.27021
rhand 21.263 -28.2048
rfingers 7.12502
rthumb 45.7098 -51.4192
lclavicle -7.524e-014 -9.38264e-014
lhumerus 107.167 63.6094 146.692
lradius 13.968
lwrist -71.1278
lhand -19.4183 -18.8638
lfingers 7.12502
lthumb 6.90132 11.0038
rfemur -25.4369 29.4009 14.3852
rtibia 6.64963
rfoot 0.45271 15.4381
rtoes 3.18311
lfemur 8.7433 40.3401 -15.3959
ltibia -11.7214
lfoot -14.7397 1.64904
ltoes 52.2692
